<?xml version="1.0" encoding="UTF-8"?>
<svg id="Capa_2" data-name="Capa 2" xmlns="http://www.w3.org/2000/svg" viewBox="0 0 337.96 53.64">
  <defs>
    <style>
      .cls-1 {
        fill: #fff;
      }

      .cls-2 {
        fill: #fb782e;
      }

      .cls-3 {
        fill: #2d285e;
      }
    </style>
  </defs>
  <g id="Capa_2-2" data-name="Capa 2">
    <path class="cls-3" d="M220.24,52.36h-28.4V6.24h11.77v34.35h16.63v11.77Z"/>
    <path class="cls-3" d="M241.11,52.22h-11.77V6.09h11.77v46.12Z"/>
    <path class="cls-3" d="M289.54,52.36h-11.77l-15.78-23.37v23.37h-11.77V6.24h11.77l15.78,25.85V6.24h11.77v46.12Z"/>
    <path class="cls-3" d="M337.96,6.09l-17.18,23.49,16.75,22.64h-14.63l-14.02-20.21v20.21h-11.77V6.09h11.77v19.36l15.23-19.36h13.84Z"/>
    <path class="cls-3" d="M30.08,52.96H0V5.36h11.64v35.96h18.44v11.64Z"/>
    <path class="cls-3" d="M78.28,30.36c0,4.36-.98,8.2-2.94,11.52-1.96,3.32-4.6,5.88-7.92,7.68-3.32,1.8-6.92,2.7-10.8,2.7s-7.54-.9-10.86-2.7c-3.32-1.8-5.96-4.36-7.92-7.68-1.96-3.32-2.94-7.16-2.94-11.52l-.06-24.24,11.82-.06v24.9c0,1.88.46,3.57,1.38,5.07.92,1.5,2.14,2.66,3.66,3.48,1.52.82,3.16,1.23,4.92,1.23s3.4-.41,4.92-1.23c1.52-.82,2.74-1.98,3.66-3.48.92-1.5,1.38-3.19,1.38-5.07V6.06l11.76.06-.06,24.24Z"/>
    <path class="cls-3" d="M123.68,40.86c-1.97,3.4-4.8,6.1-8.49,8.1-3.69,2-7.99,3-12.88,3h-17.17V6.36h17.17c5.02,0,9.36,1.04,13.03,3.12,3.67,2.08,6.47,4.9,8.4,8.46,1.93,3.56,2.89,7.48,2.89,11.76,0,4.04-.99,7.76-2.96,11.16ZM111.45,21.42c-2.12-2.32-5.16-3.48-9.15-3.48h-5.04v22.44h5.04c2.41,0,4.54-.45,6.41-1.35,1.87-.9,3.32-2.12,4.35-3.66,1.04-1.54,1.56-3.23,1.56-5.07,0-3.6-1.06-6.56-3.17-8.88Z"/>
    <path class="cls-3" d="M183.08,25.98c-.41-3.16-1.45-6.15-3.12-8.97-1.21-2.03-2.64-3.84-4.3-5.42-1.4-1.35-2.95-2.53-4.67-3.55-.62-.37-1.26-.71-1.9-1.02-3.23-1.56-6.68-2.34-10.34-2.34-3.89,0-7.52.86-10.89,2.57h0c-.48.25-.95.51-1.42.79-3.76,2.24-6.75,5.23-8.97,8.97-.19.32-.37.64-.54.97-1.86,3.47-2.79,7.2-2.79,11.18,0,1.3.1,2.58.3,3.82.46,2.92,1.47,5.7,3.03,8.32.13.21.25.42.4.63h0c.04.08.09.15.14.21.17.28.35.56.54.83.14.21.28.41.44.61.15.21.3.41.47.61.17.22.34.44.53.65.13.16.27.32.41.48.25.28.51.55.78.82.08.1.18.2.28.3.22.22.45.44.69.64.17.18.34.33.52.47.37.34.75.65,1.14.94.83.64,1.7,1.24,2.62,1.79.71.42,1.44.81,2.17,1.14.24.12.48.22.73.33s.49.21.74.3c.25.1.5.19.75.28.25.09.5.17.76.25.51.15,1.02.29,1.53.42l.12.03c1.78.4,3.62.61,5.52.61,1.62,0,3.2-.15,4.73-.46.33-.06.65-.14.98-.22.3-.07.59-.14.87-.23.07-.02.14-.04.2-.06.27-.07.53-.16.79-.24.02-.01.05-.02.08-.03.31-.11.61-.22.92-.34.01,0,.03-.01.04-.01.3-.12.6-.24.89-.37.62-.26,1.23-.56,1.83-.89.3-.16.6-.33.9-.51.83-.5,1.62-1.03,2.38-1.6.38-.28.75-.57,1.1-.88.34-.28.68-.58,1-.88.04-.04.08-.07.11-.11.28-.26.55-.53.81-.8.09-.1.19-.2.28-.3.27-.29.53-.58.78-.88.3-.36.6-.73.88-1.1.6-.77,1.14-1.58,1.64-2.43,2.22-3.74,3.33-7.79,3.33-12.14,0-1.08-.07-2.14-.21-3.18ZM158.79,17.23c-3.9.1-6.47-3.09-6.54-6.01,4.22.01,8.44.01,12.68.01-.05,2.88-2.58,5.91-6.14,6Z"/>
    <path class="cls-2" d="M189.97,8.98c-.88-1.57-2.16-2.57-4.04-2.55-.88.01-1.74.25-2.55.56-1.47.55-2.85,1.31-4.17,2.14-1.22.77-2.4,1.6-3.55,2.46,0,.01-.01.01-.01.01-1.83,1.38-3.59,2.85-5.31,4.37-.09.1-.2.17-.38.33.03-.25.04-.41.07-.55.08-.56.26-1.12.26-1.68,0-2.41-.31-4.77-1.2-7.04h0c-.01-.06-.03-.09-.05-.14-.82-2.03-2.05-3.76-3.91-4.94-3.19-2.03-6.62-2.48-10.23-1.32-1.68.54-3.14,1.44-4.39,2.68-1.18,1.16-2.03,2.49-2.65,3.94h0c-.43,1.02-.75,2.06-.98,3.17-.35,1.65-.48,3.33-.46,5.02,0,.26-.04.39-.34.43-.83.1-1.65.22-2.47.4-1.67.37-3.33.78-4.98,1.21-.57.15-1.14.32-1.7.5t-.02.01c-1.32.43-2.62.95-3.87,1.56-1.65.8-3.18,1.74-4.45,3.07-1.01,1.05-1.75,2.26-1.91,3.74-.3,2.8.87,5.07,3.73,6.04,1.08.37,2.19.54,3.33.57.23.01.46.01.69.01h.01c2.88.01,5.67-.49,8.43-1.29.08-.02.17-.01.31-.02-1.78,3.44-3.54,6.85-5.31,10.26h0c.04.08.09.15.14.21.17.28.35.56.54.83.14.21.28.41.44.61.15.21.3.41.47.61.17.22.34.44.53.65.13.16.27.32.41.48.25.28.51.55.78.82.08.1.18.2.28.3.22.22.45.44.69.64.17.18.34.33.52.47.37.34.75.65,1.14.94.83.65,1.7,1.24,2.62,1.79.71.42,1.44.81,2.17,1.14.24.12.48.22.73.33s.49.21.74.3c.25.1.5.19.75.28.25.09.5.17.76.25.51.15,1.02.29,1.53.42l.12.03,3.54-6.47c.52-.94,1.04-1.88,1.57-2.84.12.21.21.35.28.49.92,1.67,1.82,3.33,2.73,4.99l2.13,3.98c.33-.06.65-.14.98-.22.29-.07.58-.15.87-.23.07-.02.14-.04.2-.06.27-.07.53-.16.79-.24.02-.01.05-.02.08-.03.31-.11.61-.22.92-.34.01,0,.03-.01.04-.01.3-.12.6-.24.89-.37.62-.27,1.23-.57,1.83-.89.3-.16.6-.33.9-.51.83-.5,1.62-1.03,2.38-1.6.38-.28.75-.57,1.1-.88.34-.28.68-.58,1-.88.04-.04.08-.07.11-.11.28-.26.55-.53.81-.8.09-.1.19-.2.28-.3.27-.29.53-.58.78-.88.3-.36.6-.73.88-1.1.28-.38.56-.77.82-1.16-1.65-3.19-3.3-6.38-4.96-9.58-.14-.28-.09-.39.17-.57,1.61-1.06,3.25-2.09,4.82-3.23,1.36-1,2.67-2.05,3.9-3.2h.01c1.7-1.56,3.24-3.25,4.57-5.18,1.42-2.02,2.53-4.19,2.96-6.65.31-1.79.26-3.55-.64-5.18ZM158.79,17.23c-3.9.1-6.47-3.09-6.54-6.01,4.22.01,8.44.01,12.68.01-.05,2.88-2.58,5.91-6.14,6Z"/>
    <path class="cls-1" d="M164.93,11.23c-.05,2.88-2.58,5.91-6.14,6-3.9.1-6.47-3.09-6.54-6.01,4.22.01,8.44.01,12.68.01Z"/>
  </g>
</svg>